<svg xmlns="http://www.w3.org/2000/svg" viewBox="0 0 512 512">
	<!-- Background -->
	<rect width="512" height="512" rx="112" fill="#134e31"/>
	<!-- Fern (bold silhouette for small sizes) -->
	<g fill="#ffe900" transform="translate(256 270) rotate(-18)">
		<!-- Stem -->
		<path d="M-12 -210 C-6 -120 -6 -40 -10 120 C-10 170 10 170 10 120 C6 -40 6 -120 12 -210 Z"/>
		<!-- Leaflets (left) -->
		<path d="M-18 -170 C-120 -190 -150 -140 -70 -110 C-40 -98 -22 -120 -18 -170 Z"/>
		<path d="M-18 -120 C-140 -130 -170 -80 -85 -55 C-48 -44 -24 -70 -18 -120 Z"/>
		<path d="M-18 -70  C-150 -70  -185 -15 -92 10  C-50 21 -26 -8  -18 -70 Z"/>
		<path d="M-18 -20  C-145 0    -175 55  -85 70  C-48 78 -26 45  -18 -20 Z"/>
		<path d="M-18 30   C-125 60  -140 110 -62 110 C-35 110 -20 85 -18 30 Z"/>
		<!-- Leaflets (right) -->
		<path d="M18 -170 C120 -190 150 -140 70 -110 C40 -98 22 -120 18 -170 Z"/>
		<path d="M18 -120 C140 -130 170 -80 85 -55 C48 -44 24 -70 18 -120 Z"/>
		<path d="M18 -70  C150 -70  185 -15 92 10  C50 21 26 -8  18 -70 Z"/>
		<path d="M18 -20  C145 0   175 55  85 70  C48 78 26 45  18 -20 Z"/>
		<path d="M18 30   C125 60 140 110 62 110 C35 110 20 85 18 30 Z"/>
	</g>
</svg>